<?xml version="1.0" encoding="utf-8"?>
<!-- Generator: Adobe Illustrator 23.0.1, SVG Export Plug-In . SVG Version: 6.00 Build 0)  -->
<svg version="1.1" id="图层_1" xmlns="http://www.w3.org/2000/svg" xmlns:xlink="http://www.w3.org/1999/xlink" x="0px" y="0px"
	 viewBox="0 0 200 200" style="enable-background:new 0 0 200 200;" xml:space="preserve">
<style type="text/css">
	.st0{fill:#FFFFFF;}
</style>
<path class="st0" d="M170.2,150.5c4.1,4.1,4.1,10.7,0,14.7l-7.4,7.4c-5.4,5.4-12.6,8.8-21.3,9.9c-2.2,0.3-4.3,0.4-6.5,0.4
	c-6.3,0-13.1-1.1-20.3-3.2c-19.6-5.8-40.2-18.7-58-36.5s-30.8-38.4-36.5-58c-2.9-9.8-3.8-18.8-2.8-26.8c1.1-8.7,4.4-15.8,9.9-21.3
	l7.4-7.4c4.1-4.1,10.7-4.1,14.7,0l32.4,32.4c4.1,4.1,4.1,10.7,0,14.7l-7.4,7.4c-4.2,4.2,0,17.7,11.8,29.5s25.3,16,29.5,11.8l7.4-7.4
	c4.1-4.1,10.7-4.1,14.7,0L170.2,150.5z M180.6,34.3c-1.7-3.5-4.2-6.6-7.3-9.3c-6.3-5.4-14.6-8.3-23.3-8.3s-17.1,3-23.3,8.3
	c-3.1,2.7-5.6,5.8-7.3,9.3c-1.8,3.6-2.7,7.6-2.7,11.6c0,4.8,1.3,9.5,3.8,13.6c1.6,2.6,3.6,5,5.9,7c-1.9,1.6-4.3,3.1-7.6,5
	c-2,1.1-2.7,3.7-1.6,5.7c0.7,1.3,2.1,2.1,3.6,2.1c9.3,0,17.3-1.6,23.1-4.6c2,0.3,4,0.5,6,0.5c8.8,0,17.1-3,23.3-8.3
	c3.1-2.7,5.6-5.8,7.3-9.3C184.2,50.1,184.2,41.5,180.6,34.3L180.6,34.3z"/>
</svg>
